<svg width="100" height="19" viewBox="0 0 100 19" fill="none" xmlns="http://www.w3.org/2000/svg">
<path d="M12.5419 9.10774V3.24875C12.5419 2.48701 12.1594 1.64449 10.3011 1.64449V1.14563H17.3723V1.64449C15.5159 1.64449 15.1353 2.48701 15.1353 3.24875V16.4388C15.1353 17.2001 15.5159 18.0411 17.3723 18.0411V18.5405H10.3011V18.0411C12.1589 18.0411 12.5419 17.1996 12.5419 16.4388V10.1843H4.83324V16.4383C4.83324 17.1996 5.21382 18.0406 7.07214 18.0406V18.54H0V18.0406C1.8569 18.0406 2.23889 17.1991 2.23889 16.4383V3.24875C2.23889 2.48701 1.85737 1.64449 0 1.64449V1.14563H7.07214V1.64449C5.21429 1.64449 4.83324 2.48701 4.83324 3.24875V9.10774H12.5419Z" fill="#D5D5D5"/>
<path d="M17.97 13.2598H18.5548C19.3439 15.7036 21.1245 17.9125 23.8212 17.9125C25.8815 17.9125 27.2796 16.0717 26.6962 14.022C25.6516 10.343 18.7088 10.1849 18.7088 5.16742C18.7088 2.56544 20.7174 0.778076 23.2108 0.778076C25.9066 0.778076 27.1274 2.72259 27.7388 0.778076H28.272L28.8317 6.37613H28.1976C27.6118 3.93178 25.9322 1.85656 23.5667 1.85656C22.0402 1.85656 20.8966 2.72259 20.8966 4.37973C20.8966 5.90224 22.4985 6.97926 23.5923 7.66268C27.0516 9.81818 29.3915 10.9481 29.3915 14.1003C29.3915 16.4658 27.4834 18.9087 24.026 18.9087C21.3804 18.9087 19.5482 16.9926 19.2923 18.9087H18.7335L17.97 13.2598Z" fill="#D5D5D5"/>
<path d="M37.8001 8.92416C40.3683 8.92416 41.8698 7.79329 41.8698 5.66666C41.8698 3.66781 40.6494 2.5903 38.8688 2.25055C36.528 2.09194 35.7133 2.04054 35.7133 2.95943V8.92465H37.8001V8.92416ZM35.7133 16.1759C35.7133 17.0968 35.9432 17.5692 37.8001 17.5692C40.4451 17.5692 42.4044 16.7546 42.4044 13.6807C42.4044 10.5534 39.3764 9.97474 36.9854 9.97474H35.7128V16.1759H35.7133ZM33.1189 3.24875C33.1189 2.48701 32.7374 1.64449 30.6777 1.64449V1.14563H37.4934C41.412 1.14563 44.4646 2.22363 44.4646 5.58785C44.4646 7.79378 43.0385 8.92465 41.0821 9.37112V9.42399C43.2679 9.84305 45.3281 11.2353 45.3281 13.7595C45.3281 16.9127 42.684 18.5405 38.6901 18.5405H30.6777V18.0411C32.7374 18.0411 33.1189 17.1996 33.1189 16.4388V3.24875Z" fill="#D5D5D5"/>
<path d="M60.5961 6.55671H59.9862C59.2492 3.66589 57.3923 1.69543 54.4913 1.69543C50.295 1.69543 48.4889 5.18938 48.4889 9.91897C48.4889 13.5985 50.3448 17.5643 54.5178 17.5643C57.0108 17.5643 58.7146 16.7238 60.4701 14.9379L60.9023 15.4637C59.3511 17.4341 56.7302 18.7491 54.2885 18.7491C49.3287 18.7491 45.5386 15.4637 45.5386 9.70846C45.5386 4.48002 49.1244 0.615967 54.2387 0.615967C57.7231 0.615967 58.9956 2.77294 59.8364 0.643871H60.3686L60.5961 6.55671Z" fill="#D5D5D5"/>
<path d="M91.445 0.672241H74.3357V18.3451H91.445V0.672241Z" fill="#D5D5D5"/>
<path d="M74.3357 0.658569H91.445L82.8908 9.49502L74.3357 0.658569Z" fill="#EE3524"/>
<path d="M74.3357 18.331H91.445L82.8908 9.495L74.3357 18.331Z" fill="#EE3524"/>
<path d="M74.3357 0.658569V18.331L65.7806 9.49502L74.3357 0.658569Z" fill="#EE3524"/>
<path d="M91.4449 0.658569V18.331L100 9.49502L91.4449 0.658569Z" fill="#EE3524"/>
</svg>
